HIERARCHY
ROOT Hips
{
	OFFSET 0.00000 0.00000 0.00000
	CHANNELS 6 Xposition Yposition Zposition Zrotation Yrotation Xrotation 
	JOINT LHipJoint
	{
		OFFSET 0 0 0
		CHANNELS 3 Zrotation Yrotation Xrotation
		JOINT LeftUpLeg
		{
			OFFSET 1.44361 -1.63093 0.70831
			CHANNELS 3 Zrotation Yrotation Xrotation
			JOINT LeftLeg
			{
				OFFSET 2.20103 -6.04728 0.00000
				CHANNELS 3 Zrotation Yrotation Xrotation
				JOINT LeftFoot
				{
					OFFSET 2.54154 -6.98283 0.00000
					CHANNELS 3 Zrotation Yrotation Xrotation
					JOINT LeftToeBase
					{
						OFFSET 0.05971 -0.16406 1.77582
						CHANNELS 3 Zrotation Yrotation Xrotation
						End Site
						{
							OFFSET 0.00000 -0.00000 0.90832
						}
					}
				}
			}
		}
	}
	JOINT RHipJoint
	{
		OFFSET 0 0 0
		CHANNELS 3 Zrotation Yrotation Xrotation
		JOINT RightUpLeg
		{
			OFFSET -1.65838 -1.63093 0.70830
			CHANNELS 3 Zrotation Yrotation Xrotation
			JOINT RightLeg
			{
				OFFSET -2.26926 -6.23475 0.00000
				CHANNELS 3 Zrotation Yrotation Xrotation
				JOINT RightFoot
				{
					OFFSET -2.34808 -6.45129 0.00000
					CHANNELS 3 Zrotation Yrotation Xrotation
					JOINT RightToeBase
					{
						OFFSET -0.18633 -0.51195 1.68539
						CHANNELS 3 Zrotation Yrotation Xrotation
						End Site
						{
							OFFSET -0.00000 -0.00000 0.88927
						}
					}
				}
			}
		}
	}
	JOINT LowerBack
	{
		OFFSET 0 0 0
		CHANNELS 3 Zrotation Yrotation Xrotation
		JOINT Spine
		{
			OFFSET -0.10393 2.01691 0.06920
			CHANNELS 3 Zrotation Yrotation Xrotation
			JOINT Spine1
			{
				OFFSET 0.04092 2.01302 -0.05283
				CHANNELS 3 Zrotation Yrotation Xrotation
				JOINT Neck
				{
					OFFSET 0 0 0
					CHANNELS 3 Zrotation Yrotation Xrotation
					JOINT Neck1
					{
						OFFSET -0.02870 1.58978 -0.03113
						CHANNELS 3 Zrotation Yrotation Xrotation
						JOINT Head
						{
							OFFSET 0.11532 1.54326 -0.29195
							CHANNELS 3 Zrotation Yrotation Xrotation
							End Site
							{
								OFFSET 0.04056 1.59999 -0.09535
							}
						}
					}
				}
				JOINT LeftShoulder
				{
					OFFSET 0 0 0
					CHANNELS 3 Zrotation Yrotation Xrotation
					JOINT LeftArm
					{
						OFFSET 3.30641 1.15764 0.01104
						CHANNELS 3 Zrotation Yrotation Xrotation
						JOINT LeftForeArm
						{
							OFFSET 4.63208 -0.00000 0.00000
							CHANNELS 3 Zrotation Yrotation Xrotation
							JOINT LeftHand
							{
								OFFSET 3.41924 -0.00000 -0.00000
								CHANNELS 3 Zrotation Yrotation Xrotation
								JOINT LeftFingerBase
								{
									OFFSET 0 0 0
									CHANNELS 3 Zrotation Yrotation Xrotation
									JOINT LeftHandIndex1
									{
										OFFSET 0.62537 -0.00000 -0.00000
										CHANNELS 3 Zrotation Yrotation Xrotation
										End Site
										{
											OFFSET 0.50419 -0.00000 -0.00000
										}
									}
								}
								JOINT LThumb
								{
									OFFSET 0 0 0
									CHANNELS 3 Zrotation Yrotation Xrotation
									End Site
									{
										OFFSET 0.51189 -0.00000 0.51189
									}
								}
							}
						}
					}
				}
				JOINT RightShoulder
				{
					OFFSET 0 0 0
					CHANNELS 3 Zrotation Yrotation Xrotation
					JOINT RightArm
					{
						OFFSET -3.78081 1.02180 -0.16609
						CHANNELS 3 Zrotation Yrotation Xrotation
						JOINT RightForeArm
						{
							OFFSET -4.40640 -0.00000 -0.00000
							CHANNELS 3 Zrotation Yrotation Xrotation
							JOINT RightHand
							{
								OFFSET -3.44675 -0.00000 0.00000
								CHANNELS 3 Zrotation Yrotation Xrotation
								JOINT RightFingerBase
								{
									OFFSET 0 0 0
									CHANNELS 3 Zrotation Yrotation Xrotation
									JOINT RightHandIndex1
									{
										OFFSET -0.51367 -0.00000 -0.00000
										CHANNELS 3 Zrotation Yrotation Xrotation
										End Site
										{
											OFFSET -0.41414 -0.00000 -0.00000
										}
									}
								}
								JOINT RThumb
								{
									OFFSET 0 0 0
									CHANNELS 3 Zrotation Yrotation Xrotation
									End Site
									{
										OFFSET -0.42046 -0.00000 0.42046
									}
								}
							}
						}
					}
				}
			}
		}
	}
}
MOTION
Frames: 16
Frame Time: .0083333
9.8761 12.7211 -8.6934 4.7986 3.5288 1.7215 0.0000 0.0000 0.0000 -13.0389 -17.3278 -43.7750 0.0000 0.0000 0.0000 0.0000 0.0000 0.0000 0.0000 0.0000 0.0000 0.0000 0.0000 0.0000 6.0497 6.6297 -43.5199 0.0000 0.0000 0.0000 -0.0000 -0.0000 0.0000 -0.0000 -0.0000 0.0000 -6.9459 1.3087 12.9724 0.8045 1.0468 8.6520 4.6365 0.2285 1.7521 -1.6337 0.8871 -10.3663 1.3174 1.3049 31.9237 0.9618 0.5732 12.1916 0.0000 0.0000 0.0000 -5.2364 -62.5365 19.8055 31.9025 -42.4693 -12.6750 -0.0000 -0.0000 19.7458 48.1118 -26.7632 -26.6603 -7.1250 0.0000 -0.0000 10.3124 -6.5544 -11.6019 0.0000 0.0000 0.0000 4.8477 54.7063 22.0819 -37.5083 46.5224 -16.6079 0.0000 0.0000 3.2203 -28.9606 -24.9045 13.1184 7.1250 -0.0000 -0.0000 0.6603 -57.9306 -0.2090
9.8413 12.6927 -8.6846 1.7943 3.1892 0.9439 0.0000 0.0000 0.0000 -9.3752 -16.0882 -43.9641 0.0000 0.0000 0.0000 0.0000 0.0000 0.0000 0.0000 0.0000 0.0000 0.0000 0.0000 0.0000 9.9233 7.6726 -42.3807 0.0000 0.0000 0.0000 -0.0000 -0.0000 0.0000 -0.0000 -0.0000 0.0000 -4.3602 1.3416 13.3342 1.6805 1.3341 8.8799 4.0600 0.4490 1.7605 -1.6598 0.8063 -10.2640 1.3119 1.1943 31.7540 0.9468 0.5217 12.1031 -0.0000 -0.0000 0.0000 -5.1612 -62.6144 19.8996 31.9369 -42.4968 -12.6982 -0.0000 -0.0000 19.7173 47.9778 -26.0954 -26.0190 -7.1250 0.0000 -0.0000 10.4225 -5.6824 -11.5883 -0.0000 -0.0000 0.0000 4.7597 54.6572 22.0149 -37.5143 46.5263 -16.6122 0.0000 0.0000 3.1852 -29.2625 -24.9105 13.2791 7.1250 -0.0000 -0.0000 0.3199 -58.0075 -0.1018
9.8347 12.6999 -8.6867 2.8370 3.0581 1.3162 0.0000 0.0000 0.0000 -10.4657 -16.1748 -44.1578 0.0000 0.0000 0.0000 0.0000 0.0000 0.0000 0.0000 0.0000 0.0000 0.0000 0.0000 0.0000 8.6653 7.7442 -42.9979 0.0000 0.0000 0.0000 -0.0000 -0.0000 0.0000 -0.0000 -0.0000 0.0000 -5.5168 1.4805 13.0272 1.4164 1.4139 8.8119 4.4312 0.4471 1.8400 -1.6449 0.7294 -10.2895 1.3542 1.0667 31.6867 0.9430 0.4724 12.0832 -0.0000 -0.0000 0.0000 -5.0714 -62.6445 19.8804 31.9968 -42.5446 -12.7387 -0.0000 -0.0000 19.7620 47.8655 -25.7477 -25.6498 -7.1250 0.0000 -0.0000 10.4549 -5.2068 -11.5470 -0.0000 -0.0000 0.0000 4.6888 54.6139 21.9110 -37.5261 46.5339 -16.6208 0.0000 0.0000 3.3420 -29.4811 -24.9492 13.4127 7.1250 -0.0000 -0.0000 0.0829 -58.1010 -0.0266
9.8441 12.6991 -8.6840 3.2441 3.2461 1.2984 0.0000 0.0000 0.0000 -11.0607 -16.5149 -43.9244 0.0000 0.0000 0.0000 0.0000 0.0000 0.0000 0.0000 0.0000 0.0000 0.0000 0.0000 0.0000 8.1205 7.3593 -42.9716 0.0000 0.0000 0.0000 -0.0000 -0.0000 0.0000 -0.0000 -0.0000 0.0000 -5.7521 1.3973 12.9898 1.2782 1.2858 8.8742 4.4350 0.3726 1.9434 -1.6067 0.7004 -10.2807 1.3202 1.0254 31.5846 0.9167 0.4545 12.0414 0.0000 0.0000 0.0000 -4.9839 -62.5874 19.7636 32.0380 -42.5775 -12.7665 -0.0000 -0.0000 19.8452 47.9388 -25.7368 -25.6985 -7.1250 0.0000 -0.0000 10.4984 -5.2273 -11.6000 0.0000 0.0000 0.0000 4.6151 54.6896 21.7680 -37.5297 46.5363 -16.6234 0.0000 0.0000 3.5419 -29.5894 -24.7499 13.3726 7.1250 -0.0000 -0.0000 -0.0997 -57.9097 0.0315
9.8470 12.6991 -8.6951 3.3371 3.3027 1.3109 0.0000 0.0000 0.0000 -11.1731 -16.6269 -43.9706 0.0000 0.0000 0.0000 0.0000 0.0000 0.0000 0.0000 0.0000 0.0000 0.0000 0.0000 0.0000 7.9881 7.2934 -43.0556 0.0000 0.0000 0.0000 -0.0000 -0.0000 0.0000 -0.0000 -0.0000 0.0000 -5.7907 1.3430 13.1326 1.2458 1.2012 8.8432 4.4303 0.3332 1.8445 -1.5865 0.6983 -10.1491 1.2221 1.0442 31.3933 0.8754 0.4537 11.9375 -0.0000 0.0000 0.0000 -5.0248 -62.4869 19.7292 32.0526 -42.5891 -12.7764 -0.0000 -0.0000 19.9404 47.9648 -25.8307 -25.7950 -7.1250 0.0000 -0.0000 10.4874 -5.3539 -11.6085 -0.0000 0.0000 0.0000 4.8281 54.7616 21.8096 -37.6088 46.5876 -16.6808 0.0000 0.0000 3.7176 -29.7646 -24.5685 13.3754 7.1250 -0.0000 -0.0000 -0.3513 -57.7529 0.1097
9.8463 12.6969 -8.6920 3.3452 3.3203 1.2570 0.0000 0.0000 0.0000 -11.2100 -16.6247 -43.8855 0.0000 0.0000 0.0000 0.0000 0.0000 0.0000 0.0000 0.0000 0.0000 0.0000 0.0000 0.0000 7.9887 7.2634 -42.9768 0.0000 0.0000 0.0000 -0.0000 -0.0000 0.0000 -0.0000 -0.0000 0.0000 -5.7932 1.3371 13.1826 1.2400 1.1897 8.8259 4.4262 0.3293 1.8007 -1.5885 0.6698 -10.0113 1.2592 0.9888 31.2349 0.8797 0.4341 11.8461 0.0000 0.0000 0.0000 -5.1259 -62.4681 19.8494 32.0943 -42.6222 -12.8046 -0.0000 -0.0000 20.0298 47.7865 -25.8013 -25.6311 -7.1250 0.0000 -0.0000 10.3967 -5.2356 -11.4853 0.0000 0.0000 0.0000 5.2087 54.7481 21.9398 -37.6813 46.6346 -16.7336 0.0000 0.0000 3.7290 -29.6123 -24.6121 13.3173 7.1250 -0.0000 -0.0000 -0.1660 -57.7650 0.0519
9.8460 12.6935 -8.6892 3.4228 3.3170 1.1864 0.0000 0.0000 0.0000 -11.3324 -16.6318 -43.7581 0.0000 0.0000 0.0000 0.0000 0.0000 0.0000 0.0000 0.0000 0.0000 0.0000 0.0000 0.0000 7.9025 7.2237 -42.8870 0.0000 0.0000 0.0000 -0.0000 -0.0000 0.0000 -0.0000 -0.0000 0.0000 -5.8368 1.3618 13.1585 1.2128 1.2209 8.8837 4.4194 0.3404 1.8721 -1.6105 0.6196 -9.9922 1.3632 0.8891 31.0951 0.9080 0.4004 11.7870 0.0000 0.0000 0.0000 -4.9723 -62.5088 19.7782 32.1493 -42.6659 -12.8419 -0.0000 -0.0000 20.0668 47.7539 -25.7823 -25.5903 -7.1250 0.0000 -0.0000 10.3837 -5.1976 -11.4642 0.0000 0.0000 0.0000 5.1843 54.7401 21.8056 -37.6739 46.6298 -16.7282 0.0000 0.0000 3.6342 -29.2486 -24.7165 13.1784 7.1250 -0.0000 -0.0000 0.2769 -57.7938 -0.0867
9.8360 12.6936 -8.7113 3.0610 3.1507 1.2585 0.0000 0.0000 0.0000 -10.7234 -16.4045 -44.1912 0.0000 0.0000 0.0000 0.0000 0.0000 0.0000 0.0000 0.0000 0.0000 0.0000 0.0000 0.0000 8.3780 7.6230 -43.1193 0.0000 0.0000 0.0000 -0.0000 -0.0000 0.0000 -0.0000 -0.0000 0.0000 -5.5939 1.4232 13.2865 1.3310 1.3164 8.8346 4.3929 0.4001 1.7386 -1.6414 0.5856 -9.9609 1.4046 0.8335 30.9213 0.9196 0.3778 11.7119 -0.0000 -0.0000 0.0000 -4.8728 -62.5307 19.6793 32.1919 -42.6997 -12.8708 -0.0000 -0.0000 20.0890 47.8076 -25.8648 -25.6989 -7.1250 0.0000 -0.0000 10.3912 -5.3228 -11.4934 -0.0000 -0.0000 0.0000 4.9747 54.7798 21.6766 -37.6619 46.6220 -16.7194 0.0000 0.0000 3.5747 -29.1841 -24.8938 13.2300 7.1250 -0.0000 -0.0000 0.4038 -57.9711 -0.1282
9.8400 12.6905 -8.6979 3.4781 3.2591 1.1235 0.0000 0.0000 0.0000 -11.3475 -16.5919 -43.7763 0.0000 0.0000 0.0000 0.0000 0.0000 0.0000 0.0000 0.0000 0.0000 0.0000 0.0000 0.0000 7.8804 7.3216 -42.9016 0.0000 0.0000 0.0000 -0.0000 -0.0000 0.0000 -0.0000 -0.0000 0.0000 -5.9595 1.4022 13.2660 1.2183 1.2555 8.9151 4.4896 0.3525 1.8441 -1.6710 0.5724 -9.9338 1.4490 0.8067 30.8123 0.9363 0.3681 11.6631 0.0000 -0.0000 0.0000 -4.8771 -62.5320 19.7131 32.2435 -42.7404 -12.9057 -0.0000 -0.0000 20.0523 47.7903 -25.8234 -25.6519 -7.1250 0.0000 -0.0000 10.3928 -5.2644 -11.4856 0.0000 -0.0000 0.0000 4.5849 54.8696 21.6205 -37.6363 46.6054 -16.7008 0.0000 0.0000 3.4292 -29.0502 -25.0052 13.2132 7.1250 -0.0000 -0.0000 0.5901 -58.0604 -0.1886
9.8333 12.6873 -8.7035 2.7851 3.1845 1.0445 0.0000 0.0000 0.0000 -10.4648 -16.3397 -43.9427 0.0000 0.0000 0.0000 0.0000 0.0000 0.0000 0.0000 0.0000 0.0000 0.0000 0.0000 0.0000 8.7542 7.5864 -42.7995 0.0000 0.0000 0.0000 -0.0000 -0.0000 0.0000 -0.0000 -0.0000 0.0000 -5.3371 1.3712 13.3560 1.3977 1.2726 8.9249 4.3233 0.3830 1.8032 -1.6993 0.5807 -9.9303 1.4914 0.8110 30.7220 0.9564 0.3719 11.6261 -0.0000 -0.0000 0.0000 -4.8811 -62.4766 19.7178 32.2898 -42.7770 -12.9372 -0.0000 -0.0000 20.0485 47.8091 -25.8067 -25.6532 -7.1250 0.0000 -0.0000 10.4077 -5.2527 -11.5007 -0.0000 -0.0000 0.0000 4.0179 55.0280 21.5224 -37.5921 46.5768 -16.6687 0.0000 0.0000 3.2223 -28.6962 -24.9646 13.0090 7.1250 -0.0000 -0.0000 0.9783 -57.9339 -0.3097
9.8260 12.6819 -8.7088 2.1725 3.0849 0.9020 0.0000 0.0000 0.0000 -9.6908 -16.0570 -44.0331 0.0000 0.0000 0.0000 0.0000 0.0000 0.0000 0.0000 0.0000 0.0000 0.0000 0.0000 0.0000 9.5433 7.8356 -42.6565 0.0000 0.0000 0.0000 -0.0000 -0.0000 0.0000 -0.0000 -0.0000 0.0000 -4.8200 1.3613 13.4751 1.5807 1.3069 8.9647 4.2180 0.4165 1.7780 -1.7688 0.5876 -9.9276 1.5359 0.8222 30.6103 0.9851 0.3746 11.5805 0.0000 -0.0000 0.0000 -4.9492 -62.4452 19.7089 32.3016 -42.7863 -12.9452 -0.0000 -0.0000 20.1225 47.9496 -25.9877 -25.9098 -7.1250 0.0000 -0.0000 10.4363 -5.5381 -11.5805 0.0000 -0.0000 0.0000 3.7151 55.1186 21.4723 -37.6087 46.5875 -16.6807 0.0000 0.0000 3.1738 -28.4533 -24.9523 12.8770 7.1250 -0.0000 -0.0000 1.2485 -57.8642 -0.3931
9.8245 12.6821 -8.7138 2.2559 3.0967 0.9503 0.0000 0.0000 0.0000 -9.7653 -16.1173 -44.0993 0.0000 0.0000 0.0000 0.0000 0.0000 0.0000 0.0000 0.0000 0.0000 0.0000 0.0000 0.0000 9.4370 7.8284 -42.7662 0.0000 0.0000 0.0000 -0.0000 -0.0000 0.0000 -0.0000 -0.0000 0.0000 -4.9069 1.3592 13.4851 1.5701 1.2942 8.9351 4.2572 0.4084 1.7421 -1.8906 0.5723 -10.0581 1.6668 0.7902 30.6213 1.0518 0.3622 11.6106 -0.0000 0.0000 0.0000 -5.0267 -62.4442 19.7720 32.3155 -42.7973 -12.9547 -0.0000 -0.0000 20.1714 48.1491 -26.2409 -26.2723 -7.1250 0.0000 -0.0000 10.4771 -5.9393 -11.6932 -0.0000 0.0000 0.0000 3.9699 55.0780 21.5386 -37.7033 46.6488 -16.7495 0.0000 0.0000 3.2908 -28.3843 -24.9009 12.8173 7.1250 -0.0000 -0.0000 1.3096 -57.7927 -0.4101
9.8253 12.6834 -8.7151 2.4228 3.1586 1.0025 0.0000 0.0000 0.0000 -9.9757 -16.2520 -44.0921 0.0000 0.0000 0.0000 0.0000 0.0000 0.0000 0.0000 0.0000 0.0000 0.0000 0.0000 0.0000 9.2122 7.7391 -42.8218 0.0000 0.0000 0.0000 -0.0000 -0.0000 0.0000 -0.0000 -0.0000 0.0000 -5.0369 1.3352 13.4637 1.5203 1.2497 8.8950 4.2835 0.3837 1.7156 -1.8909 0.5214 -9.9945 1.7040 0.7043 30.5157 1.0531 0.3284 11.5576 -0.0000 -0.0000 0.0000 -5.0610 -62.3780 19.8784 32.3533 -42.8270 -12.9803 -0.0000 -0.0000 20.2582 48.2217 -26.2405 -26.3301 -7.1250 0.0000 -0.0000 10.5172 -5.9731 -11.7449 -0.0000 -0.0000 0.0000 4.5204 55.0172 21.6893 -37.8310 46.7311 -16.8425 0.0000 0.0000 3.4104 -28.3629 -24.7308 12.7270 7.1250 -0.0000 -0.0000 1.2789 -57.6043 -0.3947
9.8303 12.6869 -8.7171 2.9592 3.1984 1.1097 0.0000 0.0000 0.0000 -10.6369 -16.4327 -44.0283 0.0000 0.0000 0.0000 0.0000 0.0000 0.0000 0.0000 0.0000 0.0000 0.0000 0.0000 0.0000 8.5263 7.5826 -42.9736 0.0000 0.0000 0.0000 -0.0000 -0.0000 0.0000 -0.0000 -0.0000 0.0000 -5.4949 1.3305 13.3900 1.3674 1.1995 8.8639 4.3884 0.3441 1.7283 -1.8530 0.4843 -9.7723 1.6025 0.6690 30.2303 0.9997 0.3055 11.4020 -0.0000 0.0000 0.0000 -5.0483 -62.3226 19.9157 32.3385 -42.8154 -12.9703 -0.0000 -0.0000 20.4199 48.1885 -26.0143 -26.1208 -7.1250 0.0000 -0.0000 10.5609 -5.6820 -11.7473 -0.0000 0.0000 0.0000 4.7826 55.0140 21.7647 -37.9066 46.7795 -16.8975 0.0000 0.0000 3.4879 -28.3463 -24.5924 12.6539 7.1250 -0.0000 -0.0000 1.2536 -57.4512 -0.3823
9.8342 12.6894 -8.7202 3.4311 3.2169 1.2360 0.0000 0.0000 0.0000 -11.1884 -16.5851 -44.0352 0.0000 0.0000 0.0000 0.0000 0.0000 0.0000 0.0000 0.0000 0.0000 0.0000 0.0000 0.0000 7.9327 7.4507 -43.1771 0.0000 0.0000 0.0000 -0.0000 -0.0000 0.0000 -0.0000 -0.0000 0.0000 -5.9079 1.3265 13.2953 1.2405 1.1573 8.8552 4.4947 0.3081 1.7759 -1.8506 0.4604 -9.6424 1.5042 0.6608 29.9828 0.9584 0.2912 11.2802 0.0000 0.0000 0.0000 -5.0735 -62.3110 19.8796 32.2742 -42.7647 -12.9266 -0.0000 -0.0000 20.6268 48.1380 -25.7772 -25.8883 -7.1250 0.0000 -0.0000 10.5977 -5.3692 -11.7373 0.0000 0.0000 0.0000 4.6633 55.0606 21.6962 -37.9303 46.7948 -16.9148 0.0000 0.0000 3.5306 -28.4566 -24.4705 12.6531 7.1250 -0.0000 -0.0000 1.0922 -57.3447 -0.3303
9.8287 12.6852 -8.7203 3.0286 3.2249 1.1361 0.0000 0.0000 0.0000 -10.6942 -16.4819 -44.0622 0.0000 0.0000 0.0000 0.0000 0.0000 0.0000 0.0000 0.0000 0.0000 0.0000 0.0000 0.0000 8.4543 7.5143 -43.0437 0.0000 0.0000 0.0000 -0.0000 -0.0000 0.0000 -0.0000 -0.0000 0.0000 -5.5634 1.2712 13.3381 1.3668 1.1184 8.9054 4.4375 0.2972 1.8099 -1.8881 0.4782 -9.6241 1.4674 0.7039 29.8624 0.9552 0.3023 11.2291 -0.0000 0.0000 0.0000 -5.1038 -62.2579 19.8135 32.2245 -42.7255 -12.8929 -0.0000 -0.0000 20.7935 48.0457 -25.6250 -25.6917 -7.1250 0.0000 -0.0000 10.5879 -5.1402 -11.6876 -0.0000 0.0000 0.0000 4.5236 55.1651 21.6453 -37.9529 46.8092 -16.9312 0.0000 0.0000 3.5804 -28.7417 -24.1776 12.6596 7.1250 -0.0000 -0.0000 0.6855 -57.0923 -0.2031
